<?xml version="1.0" standalone="no"?>
<!DOCTYPE svg PUBLIC "-//W3C//DTD SVG 20010904//EN"
 "http://www.w3.org/TR/2001/REC-SVG-20010904/DTD/svg10.dtd">
<svg version="1.0" xmlns="http://www.w3.org/2000/svg"
 width="128.000000pt" height="128.000000pt" viewBox="0 0 128.000000 128.000000"
 preserveAspectRatio="xMidYMid meet">
<metadata>
Created by potrace 1.16, written by Peter Selinger 2001-2019
</metadata>
<g transform="translate(0.000000,128.000000) scale(0.100000,-0.100000)"
fill="#000000" stroke="none">
<path d="M12 1268 c-7 -7 -12 -36 -12 -65 l0 -53 365 0 365 0 0 43 c0 23 -7
53 -16 65 -15 22 -15 22 -353 22 -249 0 -340 -3 -349 -12z"/>
<path d="M363 212 l-363 -2 0 -93 c0 -59 4 -97 12 -105 9 -9 100 -12 350 -12
l338 0 15 24 c12 18 15 45 13 107 l-3 84 -362 -3z"/>
</g>
</svg>
